solid OpenSCAD_Model
  facet normal -0.972118 0.234494 0
    outer loop
      vertex 14.6722 43.1411 22
      vertex 15 44.5 28
      vertex 15 44.5 22
    endloop
  endfacet
  facet normal -0.972118 0.234494 0
    outer loop
      vertex 15 44.5 28
      vertex 14.6722 43.1411 22
      vertex 14.6722 43.1411 28
    endloop
  endfacet
  facet normal 0.301807 0.953369 -0
    outer loop
      vertex -7.5 38.8398 22
      vertex -10.037 39.643 22.75
      vertex -7.5 38.8398 22.75
    endloop
  endfacet
  facet normal 0.301807 0.953369 0
    outer loop
      vertex -10.037 39.643 22.75
      vertex -7.5 38.8398 22
      vertex -10.037 39.643 22
    endloop
  endfacet
  facet normal 0.602392 0.7982 -0
    outer loop
      vertex -12.1353 40.6584 22
      vertex -13.7032 41.8416 22.75
      vertex -12.1353 40.6584 22.75
    endloop
  endfacet
  facet normal 0.602392 0.7982 0
    outer loop
      vertex -13.7032 41.8416 22.75
      vertex -12.1353 40.6584 22
      vertex -13.7032 41.8416 22
    endloop
  endfacet
  facet normal -0.301807 0.953369 0
    outer loop
      vertex 10.037 39.643 22
      vertex 7.5 38.8398 22.75
      vertex 10.037 39.643 22.75
    endloop
  endfacet
  facet normal -0.301807 0.953369 0
    outer loop
      vertex 7.5 38.8398 22.75
      vertex 10.037 39.643 22
      vertex 7.5 38.8398 22
    endloop
  endfacet
  facet normal -0.602392 0.7982 0
    outer loop
      vertex 13.7032 41.8416 22
      vertex 12.1353 40.6584 22.75
      vertex 13.7032 41.8416 22.75
    endloop
  endfacet
  facet normal -0.602392 0.7982 0
    outer loop
      vertex 12.1353 40.6584 22.75
      vertex 13.7032 41.8416 22
      vertex 12.1353 40.6584 22
    endloop
  endfacet
  facet normal 0 1 -0
    outer loop
      vertex 1.56793 38 22
      vertex -1.56793 38 22.75
      vertex 1.56793 38 22.75
    endloop
  endfacet
  facet normal 0 1 0
    outer loop
      vertex -1.56793 38 22.75
      vertex 1.56793 38 22
      vertex -1.56793 38 22
    endloop
  endfacet
  facet normal 0 0 -1
    outer loop
      vertex 12.1353 -40.6584 22
      vertex 65.65 38.0502 22
      vertex 65.65 -43 22
    endloop
  endfacet
  facet normal 0 0 -1
    outer loop
      vertex 13.7032 -41.8416 22
      vertex 65.65 -43 22
      vertex 64.15 -44.5 22
    endloop
  endfacet
  facet normal 0 0 -1
    outer loop
      vertex 12.1353 40.6584 22
      vertex 65.65 38.0502 22
      vertex 12.1353 -40.6584 22
    endloop
  endfacet
  facet normal 0 0 -1
    outer loop
      vertex 65.2106 39.1109 22
      vertex 59.2002 44.5 22
      vertex 60.2609 44.0607 22
    endloop
  endfacet
  facet normal 0 0 -1
    outer loop
      vertex 14.6722 -43.1411 22
      vertex 64.15 -44.5 22
      vertex 15 -44.5 22
    endloop
  endfacet
  facet normal 0 0 -1
    outer loop
      vertex 13.7032 -41.8416 22
      vertex 64.15 -44.5 22
      vertex 14.6722 -43.1411 22
    endloop
  endfacet
  facet normal 0 0 -1
    outer loop
      vertex 65.65 -43 22
      vertex 13.7032 -41.8416 22
      vertex 12.1353 -40.6584 22
    endloop
  endfacet
  facet normal -0 0 -1
    outer loop
      vertex 59.2002 44.5 22
      vertex 14.6722 43.1411 22
      vertex 15 44.5 22
    endloop
  endfacet
  facet normal 0 -0 -1
    outer loop
      vertex 13.7032 41.8416 22
      vertex 65.65 38.0502 22
      vertex 12.1353 40.6584 22
    endloop
  endfacet
  facet normal 0 0 -1
    outer loop
      vertex 59.2002 44.5 22
      vertex 13.7032 41.8416 22
      vertex 14.6722 43.1411 22
    endloop
  endfacet
  facet normal 0 -0 -1
    outer loop
      vertex 59.2002 44.5 22
      vertex 65.65 38.0502 22
      vertex 13.7032 41.8416 22
    endloop
  endfacet
  facet normal 0 0 -1
    outer loop
      vertex 65.65 38.0502 22
      vertex 59.2002 44.5 22
      vertex 65.2106 39.1109 22
    endloop
  endfacet
  facet normal 0 0 -1
    outer loop
      vertex 10.037 -39.643 22
      vertex 12.1353 40.6584 22
      vertex 12.1353 -40.6584 22
    endloop
  endfacet
  facet normal 0 0 -1
    outer loop
      vertex 10.037 -39.643 22
      vertex 10.037 39.643 22
      vertex 12.1353 40.6584 22
    endloop
  endfacet
  facet normal 0 0 -1
    outer loop
      vertex 7.5 -38.8398 22
      vertex 10.037 39.643 22
      vertex 10.037 -39.643 22
    endloop
  endfacet
  facet normal 0 0 -1
    outer loop
      vertex 7.5 -38.8398 22
      vertex 7.5 38.8398 22
      vertex 10.037 39.643 22
    endloop
  endfacet
  facet normal 0 0 -1
    outer loop
      vertex 4.63525 -38.2841 22
      vertex 7.5 38.8398 22
      vertex 7.5 -38.8398 22
    endloop
  endfacet
  facet normal 0 0 -1
    outer loop
      vertex 4.63525 -38.2841 22
      vertex 4.63525 38.2841 22
      vertex 7.5 38.8398 22
    endloop
  endfacet
  facet normal 0 0 -1
    outer loop
      vertex 1.56793 -38 22
      vertex 4.63525 38.2841 22
      vertex 4.63525 -38.2841 22
    endloop
  endfacet
  facet normal 0 0 -1
    outer loop
      vertex 1.56793 -38 22
      vertex 1.56793 38 22
      vertex 4.63525 38.2841 22
    endloop
  endfacet
  facet normal 0 0 -1
    outer loop
      vertex -1.56793 -38 22
      vertex 1.56793 38 22
      vertex 1.56793 -38 22
    endloop
  endfacet
  facet normal 0 0 -1
    outer loop
      vertex -1.56793 -38 22
      vertex -1.56793 38 22
      vertex 1.56793 38 22
    endloop
  endfacet
  facet normal 0 0 -1
    outer loop
      vertex -4.63525 -38.2841 22
      vertex -1.56793 38 22
      vertex -1.56793 -38 22
    endloop
  endfacet
  facet normal 0 0 -1
    outer loop
      vertex -4.63525 -38.2841 22
      vertex -4.63525 38.2841 22
      vertex -1.56793 38 22
    endloop
  endfacet
  facet normal 0 0 -1
    outer loop
      vertex -7.5 -38.8398 22
      vertex -4.63525 38.2841 22
      vertex -4.63525 -38.2841 22
    endloop
  endfacet
  facet normal 0 0 -1
    outer loop
      vertex -7.5 -38.8398 22
      vertex -7.5 38.8398 22
      vertex -4.63525 38.2841 22
    endloop
  endfacet
  facet normal 0 0 -1
    outer loop
      vertex -10.037 -39.643 22
      vertex -7.5 38.8398 22
      vertex -7.5 -38.8398 22
    endloop
  endfacet
  facet normal 0 0 -1
    outer loop
      vertex -10.037 -39.643 22
      vertex -10.037 39.643 22
      vertex -7.5 38.8398 22
    endloop
  endfacet
  facet normal 0 0 -1
    outer loop
      vertex -12.1353 -40.6584 22
      vertex -10.037 39.643 22
      vertex -10.037 -39.643 22
    endloop
  endfacet
  facet normal 0 0 -1
    outer loop
      vertex -12.1353 -40.6584 22
      vertex -12.1353 40.6584 22
      vertex -10.037 39.643 22
    endloop
  endfacet
  facet normal 0 0 -1
    outer loop
      vertex -65.65 -43 22
      vertex -12.1353 -40.6584 22
      vertex -13.7032 -41.8416 22
    endloop
  endfacet
  facet normal -0 0 -1
    outer loop
      vertex -12.1353 -40.6584 22
      vertex -65.65 -43 22
      vertex -12.1353 40.6584 22
    endloop
  endfacet
  facet normal 0 0 -1
    outer loop
      vertex -64.15 -44.5 22
      vertex -13.7032 -41.8416 22
      vertex -14.6722 -43.1411 22
    endloop
  endfacet
  facet normal 0 0 -1
    outer loop
      vertex -65.65 43 22
      vertex -12.1353 40.6584 22
      vertex -65.65 -43 22
    endloop
  endfacet
  facet normal 0 0 -1
    outer loop
      vertex -64.15 -44.5 22
      vertex -14.6722 -43.1411 22
      vertex -15 -44.5 22
    endloop
  endfacet
  facet normal 0 0 -1
    outer loop
      vertex -12.1353 40.6584 22
      vertex -65.65 43 22
      vertex -13.7032 41.8416 22
    endloop
  endfacet
  facet normal 0 0 -1
    outer loop
      vertex -13.7032 -41.8416 22
      vertex -64.15 -44.5 22
      vertex -65.65 -43 22
    endloop
  endfacet
  facet normal 0 -0 -1
    outer loop
      vertex -64.15 44.5 22
      vertex -13.7032 41.8416 22
      vertex -65.65 43 22
    endloop
  endfacet
  facet normal 0 0 -1
    outer loop
      vertex -13.7032 41.8416 22
      vertex -64.15 44.5 22
      vertex -14.6722 43.1411 22
    endloop
  endfacet
  facet normal 0 0 -1
    outer loop
      vertex -14.6722 43.1411 22
      vertex -64.15 44.5 22
      vertex -15 44.5 22
    endloop
  endfacet
  facet normal 0.435594 0.900143 -0
    outer loop
      vertex -10.037 39.643 22
      vertex -12.1353 40.6584 22.75
      vertex -10.037 39.643 22.75
    endloop
  endfacet
  facet normal 0.435594 0.900143 0
    outer loop
      vertex -12.1353 40.6584 22.75
      vertex -10.037 39.643 22
      vertex -12.1353 40.6584 22
    endloop
  endfacet
  facet normal -0.0922203 0.995739 0
    outer loop
      vertex 4.63525 38.2841 22
      vertex 1.56793 38 22.75
      vertex 4.63525 38.2841 22.75
    endloop
  endfacet
  facet normal -0.0922203 0.995739 0
    outer loop
      vertex 1.56793 38 22.75
      vertex 4.63525 38.2841 22
      vertex 1.56793 38 22
    endloop
  endfacet
  facet normal -0.190445 0.981698 0
    outer loop
      vertex 7.5 38.8398 22
      vertex 4.63525 38.2841 22.75
      vertex 7.5 38.8398 22.75
    endloop
  endfacet
  facet normal -0.190445 0.981698 0
    outer loop
      vertex 4.63525 38.2841 22.75
      vertex 7.5 38.8398 22
      vertex 4.63525 38.2841 22
    endloop
  endfacet
  facet normal -0.801646 0.5978 0
    outer loop
      vertex 14.6722 43.1411 22
      vertex 14.567 43 22.75
      vertex 14.6722 43.1411 28
    endloop
  endfacet
  facet normal -0.801649 0.597795 -1.24742e-06
    outer loop
      vertex 13.7032 41.8416 22
      vertex 14.567 43 22.75
      vertex 14.6722 43.1411 22
    endloop
  endfacet
  facet normal -0.801649 0.597795 0
    outer loop
      vertex 14.567 43 22.75
      vertex 13.7032 41.8416 22
      vertex 13.7032 41.8416 22.75
    endloop
  endfacet
  facet normal -0.801646 0.5978 0
    outer loop
      vertex 14.6722 43.1411 28
      vertex 14.567 43 22.75
      vertex 14.567 43 28
    endloop
  endfacet
  facet normal 0.0922203 0.995739 -0
    outer loop
      vertex -1.56793 38 22
      vertex -4.63525 38.2841 22.75
      vertex -1.56793 38 22.75
    endloop
  endfacet
  facet normal 0.0922203 0.995739 0
    outer loop
      vertex -4.63525 38.2841 22.75
      vertex -1.56793 38 22
      vertex -4.63525 38.2841 22
    endloop
  endfacet
  facet normal 0.801646 0.5978 -0
    outer loop
      vertex -14.567 43 22.75
      vertex -14.6722 43.1411 28
      vertex -14.567 43 28
    endloop
  endfacet
  facet normal 0.801646 0.5978 0
    outer loop
      vertex -14.6722 43.1411 28
      vertex -14.567 43 22.75
      vertex -14.6722 43.1411 22
    endloop
  endfacet
  facet normal 0.801649 0.597795 -0
    outer loop
      vertex -13.7032 41.8416 22
      vertex -14.567 43 22.75
      vertex -13.7032 41.8416 22.75
    endloop
  endfacet
  facet normal 0.801649 0.597795 -1.24742e-06
    outer loop
      vertex -14.567 43 22.75
      vertex -13.7032 41.8416 22
      vertex -14.6722 43.1411 22
    endloop
  endfacet
  facet normal 0.972118 0.234494 0
    outer loop
      vertex -14.6722 43.1411 28
      vertex -15 44.5 22
      vertex -15 44.5 28
    endloop
  endfacet
  facet normal 0.972118 0.234494 0
    outer loop
      vertex -15 44.5 22
      vertex -14.6722 43.1411 28
      vertex -14.6722 43.1411 22
    endloop
  endfacet
  facet normal -0.435594 0.900143 0
    outer loop
      vertex 12.1353 40.6584 22
      vertex 10.037 39.643 22.75
      vertex 12.1353 40.6584 22.75
    endloop
  endfacet
  facet normal -0.435594 0.900143 0
    outer loop
      vertex 10.037 39.643 22.75
      vertex 12.1353 40.6584 22
      vertex 10.037 39.643 22
    endloop
  endfacet
  facet normal 0.190445 0.981698 -0
    outer loop
      vertex -4.63525 38.2841 22
      vertex -7.5 38.8398 22.75
      vertex -4.63525 38.2841 22.75
    endloop
  endfacet
  facet normal 0.190445 0.981698 0
    outer loop
      vertex -7.5 38.8398 22.75
      vertex -4.63525 38.2841 22
      vertex -7.5 38.8398 22
    endloop
  endfacet
  facet normal -0.972118 -0.234494 0
    outer loop
      vertex 15 -44.5 22
      vertex 14.6722 -43.1411 28
      vertex 14.6722 -43.1411 22
    endloop
  endfacet
  facet normal -0.972118 -0.234494 0
    outer loop
      vertex 14.6722 -43.1411 28
      vertex 15 -44.5 22
      vertex 15 -44.5 28
    endloop
  endfacet
  facet normal 0.301807 -0.953369 0
    outer loop
      vertex -10.037 -39.643 22
      vertex -7.5 -38.8398 22.75
      vertex -10.037 -39.643 22.75
    endloop
  endfacet
  facet normal 0.301807 -0.953369 0
    outer loop
      vertex -7.5 -38.8398 22.75
      vertex -10.037 -39.643 22
      vertex -7.5 -38.8398 22
    endloop
  endfacet
  facet normal 0.602392 -0.7982 0
    outer loop
      vertex -13.7032 -41.8416 22
      vertex -12.1353 -40.6584 22.75
      vertex -13.7032 -41.8416 22.75
    endloop
  endfacet
  facet normal 0.602392 -0.7982 0
    outer loop
      vertex -12.1353 -40.6584 22.75
      vertex -13.7032 -41.8416 22
      vertex -12.1353 -40.6584 22
    endloop
  endfacet
  facet normal -0.301807 -0.953369 0
    outer loop
      vertex 7.5 -38.8398 22
      vertex 10.037 -39.643 22.75
      vertex 7.5 -38.8398 22.75
    endloop
  endfacet
  facet normal -0.301807 -0.953369 -0
    outer loop
      vertex 10.037 -39.643 22.75
      vertex 7.5 -38.8398 22
      vertex 10.037 -39.643 22
    endloop
  endfacet
  facet normal -0.602392 -0.7982 0
    outer loop
      vertex 12.1353 -40.6584 22
      vertex 13.7032 -41.8416 22.75
      vertex 12.1353 -40.6584 22.75
    endloop
  endfacet
  facet normal -0.602392 -0.7982 -0
    outer loop
      vertex 13.7032 -41.8416 22.75
      vertex 12.1353 -40.6584 22
      vertex 13.7032 -41.8416 22
    endloop
  endfacet
  facet normal 0 -1 0
    outer loop
      vertex -1.56793 -38 22
      vertex 1.56793 -38 22.75
      vertex -1.56793 -38 22.75
    endloop
  endfacet
  facet normal 0 -1 -0
    outer loop
      vertex 1.56793 -38 22.75
      vertex -1.56793 -38 22
      vertex 1.56793 -38 22
    endloop
  endfacet
  facet normal 0.435594 -0.900143 0
    outer loop
      vertex -12.1353 -40.6584 22
      vertex -10.037 -39.643 22.75
      vertex -12.1353 -40.6584 22.75
    endloop
  endfacet
  facet normal 0.435594 -0.900143 0
    outer loop
      vertex -10.037 -39.643 22.75
      vertex -12.1353 -40.6584 22
      vertex -10.037 -39.643 22
    endloop
  endfacet
  facet normal -0.0922203 -0.995739 0
    outer loop
      vertex 1.56793 -38 22
      vertex 4.63525 -38.2841 22.75
      vertex 1.56793 -38 22.75
    endloop
  endfacet
  facet normal -0.0922203 -0.995739 -0
    outer loop
      vertex 4.63525 -38.2841 22.75
      vertex 1.56793 -38 22
      vertex 4.63525 -38.2841 22
    endloop
  endfacet
  facet normal -0.190445 -0.981698 0
    outer loop
      vertex 4.63525 -38.2841 22
      vertex 7.5 -38.8398 22.75
      vertex 4.63525 -38.2841 22.75
    endloop
  endfacet
  facet normal -0.190445 -0.981698 -0
    outer loop
      vertex 7.5 -38.8398 22.75
      vertex 4.63525 -38.2841 22
      vertex 7.5 -38.8398 22
    endloop
  endfacet
  facet normal -0.801649 -0.597795 0
    outer loop
      vertex 13.7032 -41.8416 22
      vertex 14.567 -43 22.75
      vertex 13.7032 -41.8416 22.75
    endloop
  endfacet
  facet normal -0.801649 -0.597795 -1.24742e-06
    outer loop
      vertex 14.6722 -43.1411 22
      vertex 14.567 -43 22.75
      vertex 13.7032 -41.8416 22
    endloop
  endfacet
  facet normal -0.801646 -0.5978 -0
    outer loop
      vertex 14.6722 -43.1411 28
      vertex 14.567 -43 22.75
      vertex 14.6722 -43.1411 22
    endloop
  endfacet
  facet normal -0.801646 -0.5978 0
    outer loop
      vertex 14.567 -43 22.75
      vertex 14.6722 -43.1411 28
      vertex 14.567 -43 28
    endloop
  endfacet
  facet normal 0.0922203 -0.995739 0
    outer loop
      vertex -4.63525 -38.2841 22
      vertex -1.56793 -38 22.75
      vertex -4.63525 -38.2841 22.75
    endloop
  endfacet
  facet normal 0.0922203 -0.995739 0
    outer loop
      vertex -1.56793 -38 22.75
      vertex -4.63525 -38.2841 22
      vertex -1.56793 -38 22
    endloop
  endfacet
  facet normal 0.801646 -0.5978 0
    outer loop
      vertex -14.567 -43 28
      vertex -14.6722 -43.1411 28
      vertex -14.567 -43 22.75
    endloop
  endfacet
  facet normal 0.801649 -0.597795 0
    outer loop
      vertex -14.567 -43 22.75
      vertex -13.7032 -41.8416 22
      vertex -13.7032 -41.8416 22.75
    endloop
  endfacet
  facet normal 0.801649 -0.597795 -1.24742e-06
    outer loop
      vertex -14.567 -43 22.75
      vertex -14.6722 -43.1411 22
      vertex -13.7032 -41.8416 22
    endloop
  endfacet
  facet normal 0.801646 -0.5978 0
    outer loop
      vertex -14.6722 -43.1411 22
      vertex -14.567 -43 22.75
      vertex -14.6722 -43.1411 28
    endloop
  endfacet
  facet normal 0.972118 -0.234494 0
    outer loop
      vertex -15 -44.5 28
      vertex -14.6722 -43.1411 22
      vertex -14.6722 -43.1411 28
    endloop
  endfacet
  facet normal 0.972118 -0.234494 0
    outer loop
      vertex -14.6722 -43.1411 22
      vertex -15 -44.5 28
      vertex -15 -44.5 22
    endloop
  endfacet
  facet normal -0.435594 -0.900143 0
    outer loop
      vertex 10.037 -39.643 22
      vertex 12.1353 -40.6584 22.75
      vertex 10.037 -39.643 22.75
    endloop
  endfacet
  facet normal -0.435594 -0.900143 -0
    outer loop
      vertex 12.1353 -40.6584 22.75
      vertex 10.037 -39.643 22
      vertex 12.1353 -40.6584 22
    endloop
  endfacet
  facet normal 0.190445 -0.981698 0
    outer loop
      vertex -7.5 -38.8398 22
      vertex -4.63525 -38.2841 22.75
      vertex -7.5 -38.8398 22.75
    endloop
  endfacet
  facet normal 0.190445 -0.981698 0
    outer loop
      vertex -4.63525 -38.2841 22.75
      vertex -7.5 -38.8398 22
      vertex -4.63525 -38.2841 22
    endloop
  endfacet
  facet normal -0 0 1
    outer loop
      vertex -61.15 40 22.75
      vertex -49.15 -40 22.75
      vertex -49.15 40 22.75
    endloop
  endfacet
  facet normal 0 0 1
    outer loop
      vertex -49.15 -40 22.75
      vertex -61.15 40 22.75
      vertex -61.15 -40 22.75
    endloop
  endfacet
  facet normal -0 0 1
    outer loop
      vertex 14.567 43 22.75
      vertex 49.15 40 22.75
      vertex 49.15 43 22.75
    endloop
  endfacet
  facet normal 0 0 1
    outer loop
      vertex 10.037 39.643 22.75
      vertex 49.15 40 22.75
      vertex 12.1353 40.6584 22.75
    endloop
  endfacet
  facet normal 0 0 1
    outer loop
      vertex 49.15 40 22.75
      vertex 14.567 43 22.75
      vertex 13.7032 41.8416 22.75
    endloop
  endfacet
  facet normal 0 0 1
    outer loop
      vertex 49.15 40 22.75
      vertex 13.7032 41.8416 22.75
      vertex 12.1353 40.6584 22.75
    endloop
  endfacet
  facet normal 0 0 1
    outer loop
      vertex 49.15 40 22.75
      vertex 10.037 39.643 22.75
      vertex 49.15 -40 22.75
    endloop
  endfacet
  facet normal 0 0 1
    outer loop
      vertex 49.15 -40 22.75
      vertex 14.567 -43 22.75
      vertex 49.15 -43 22.75
    endloop
  endfacet
  facet normal 0 -0 1
    outer loop
      vertex 13.7032 -41.8416 22.75
      vertex 49.15 -40 22.75
      vertex 12.1353 -40.6584 22.75
    endloop
  endfacet
  facet normal 0 -0 1
    outer loop
      vertex 14.567 -43 22.75
      vertex 49.15 -40 22.75
      vertex 13.7032 -41.8416 22.75
    endloop
  endfacet
  facet normal -0 0 1
    outer loop
      vertex 10.037 -39.643 22.75
      vertex 49.15 -40 22.75
      vertex 10.037 39.643 22.75
    endloop
  endfacet
  facet normal 0 0 1
    outer loop
      vertex 49.15 -40 22.75
      vertex 10.037 -39.643 22.75
      vertex 12.1353 -40.6584 22.75
    endloop
  endfacet
  facet normal -0 0 1
    outer loop
      vertex 7.5 38.8398 22.75
      vertex 10.037 -39.643 22.75
      vertex 10.037 39.643 22.75
    endloop
  endfacet
  facet normal 0 0 1
    outer loop
      vertex 7.5 38.8398 22.75
      vertex 7.5 -38.8398 22.75
      vertex 10.037 -39.643 22.75
    endloop
  endfacet
  facet normal -0 0 1
    outer loop
      vertex 4.63525 38.2841 22.75
      vertex 7.5 -38.8398 22.75
      vertex 7.5 38.8398 22.75
    endloop
  endfacet
  facet normal 0 0 1
    outer loop
      vertex 4.63525 38.2841 22.75
      vertex 4.63525 -38.2841 22.75
      vertex 7.5 -38.8398 22.75
    endloop
  endfacet
  facet normal -0 0 1
    outer loop
      vertex 1.56793 38 22.75
      vertex 4.63525 -38.2841 22.75
      vertex 4.63525 38.2841 22.75
    endloop
  endfacet
  facet normal 0 0 1
    outer loop
      vertex 1.56793 38 22.75
      vertex 1.56793 -38 22.75
      vertex 4.63525 -38.2841 22.75
    endloop
  endfacet
  facet normal -0 0 1
    outer loop
      vertex -1.56793 38 22.75
      vertex 1.56793 -38 22.75
      vertex 1.56793 38 22.75
    endloop
  endfacet
  facet normal 0 0 1
    outer loop
      vertex -1.56793 38 22.75
      vertex -1.56793 -38 22.75
      vertex 1.56793 -38 22.75
    endloop
  endfacet
  facet normal 0 0 1
    outer loop
      vertex -4.63525 38.2841 22.75
      vertex -1.56793 -38 22.75
      vertex -1.56793 38 22.75
    endloop
  endfacet
  facet normal 0 0 1
    outer loop
      vertex -4.63525 38.2841 22.75
      vertex -4.63525 -38.2841 22.75
      vertex -1.56793 -38 22.75
    endloop
  endfacet
  facet normal 0 0 1
    outer loop
      vertex -7.5 38.8398 22.75
      vertex -4.63525 -38.2841 22.75
      vertex -4.63525 38.2841 22.75
    endloop
  endfacet
  facet normal 0 0 1
    outer loop
      vertex -7.5 38.8398 22.75
      vertex -7.5 -38.8398 22.75
      vertex -4.63525 -38.2841 22.75
    endloop
  endfacet
  facet normal 0 0 1
    outer loop
      vertex -10.037 39.643 22.75
      vertex -7.5 -38.8398 22.75
      vertex -7.5 38.8398 22.75
    endloop
  endfacet
  facet normal 0 0 1
    outer loop
      vertex -10.037 39.643 22.75
      vertex -10.037 -39.643 22.75
      vertex -7.5 -38.8398 22.75
    endloop
  endfacet
  facet normal -0 0 1
    outer loop
      vertex -49.15 40 22.75
      vertex -10.037 39.643 22.75
      vertex -12.1353 40.6584 22.75
    endloop
  endfacet
  facet normal 0 0 1
    outer loop
      vertex -10.037 39.643 22.75
      vertex -49.15 40 22.75
      vertex -10.037 -39.643 22.75
    endloop
  endfacet
  facet normal 0 0 1
    outer loop
      vertex -49.15 40 22.75
      vertex -12.1353 40.6584 22.75
      vertex -13.7032 41.8416 22.75
    endloop
  endfacet
  facet normal 0 0 1
    outer loop
      vertex -49.15 -40 22.75
      vertex -10.037 -39.643 22.75
      vertex -49.15 40 22.75
    endloop
  endfacet
  facet normal 0 0 1
    outer loop
      vertex -49.15 40 22.75
      vertex -13.7032 41.8416 22.75
      vertex -14.567 43 22.75
    endloop
  endfacet
  facet normal 0 0 1
    outer loop
      vertex -10.037 -39.643 22.75
      vertex -49.15 -40 22.75
      vertex -12.1353 -40.6584 22.75
    endloop
  endfacet
  facet normal 0 0 1
    outer loop
      vertex -49.15 40 22.75
      vertex -14.567 43 22.75
      vertex -49.15 43 22.75
    endloop
  endfacet
  facet normal 0 0 1
    outer loop
      vertex -12.1353 -40.6584 22.75
      vertex -49.15 -40 22.75
      vertex -13.7032 -41.8416 22.75
    endloop
  endfacet
  facet normal 0 0 1
    outer loop
      vertex -13.7032 -41.8416 22.75
      vertex -49.15 -40 22.75
      vertex -14.567 -43 22.75
    endloop
  endfacet
  facet normal 0 0 1
    outer loop
      vertex -14.567 -43 22.75
      vertex -49.15 -40 22.75
      vertex -49.15 -43 22.75
    endloop
  endfacet
  facet normal -0 0 1
    outer loop
      vertex 49.15 40 22.75
      vertex 61.15 36.8076 22.75
      vertex 57.9576 40 22.75
    endloop
  endfacet
  facet normal 0 0 1
    outer loop
      vertex 61.15 36.8076 22.75
      vertex 49.15 40 22.75
      vertex 49.15 -40 22.75
    endloop
  endfacet
  facet normal 0 0 1
    outer loop
      vertex 61.15 36.8076 22.75
      vertex 49.15 -40 22.75
      vertex 61.15 -40 22.75
    endloop
  endfacet
  facet normal 0 1 0
    outer loop
      vertex 49.15 -43 25
      vertex 64.15 -43 28
      vertex 64.15 -43 25
    endloop
  endfacet
  facet normal 0 1 0
    outer loop
      vertex 64.15 -43 28
      vertex 49.15 -43 25
      vertex 14.567 -43 28
    endloop
  endfacet
  facet normal 0 1 0
    outer loop
      vertex 14.567 -43 22.75
      vertex 49.15 -43 25
      vertex 49.15 -43 22.75
    endloop
  endfacet
  facet normal 0 1 0
    outer loop
      vertex 49.15 -43 25
      vertex 14.567 -43 22.75
      vertex 14.567 -43 28
    endloop
  endfacet
  facet normal 0 1 0
    outer loop
      vertex -14.567 -43 28
      vertex -49.15 -43 25
      vertex -64.15 -43 28
    endloop
  endfacet
  facet normal 0 1 -0
    outer loop
      vertex -14.567 -43 22.75
      vertex -49.15 -43 25
      vertex -14.567 -43 28
    endloop
  endfacet
  facet normal 0 1 0
    outer loop
      vertex -49.15 -43 25
      vertex -14.567 -43 22.75
      vertex -49.15 -43 22.75
    endloop
  endfacet
  facet normal 0 1 0
    outer loop
      vertex -64.15 -43 28
      vertex -49.15 -43 25
      vertex -64.15 -43 25
    endloop
  endfacet
  facet normal 0 -1 0
    outer loop
      vertex 14.567 43 28
      vertex 49.15 43 25
      vertex 59.2002 43 28
    endloop
  endfacet
  facet normal 0 -1 0
    outer loop
      vertex 14.567 43 22.75
      vertex 49.15 43 25
      vertex 14.567 43 28
    endloop
  endfacet
  facet normal 0 -1 -0
    outer loop
      vertex 49.15 43 25
      vertex 14.567 43 22.75
      vertex 49.15 43 22.75
    endloop
  endfacet
  facet normal 0 -1 -0
    outer loop
      vertex 59.2002 43 28
      vertex 49.15 43 25
      vertex 59.2002 43 25
    endloop
  endfacet
  facet normal 0 -1 0
    outer loop
      vertex -49.15 43 25
      vertex -64.15 43 28
      vertex -64.15 43 25
    endloop
  endfacet
  facet normal 0 -1 0
    outer loop
      vertex -64.15 43 28
      vertex -49.15 43 25
      vertex -14.567 43 28
    endloop
  endfacet
  facet normal 0 -1 0
    outer loop
      vertex -14.567 43 22.75
      vertex -49.15 43 25
      vertex -49.15 43 22.75
    endloop
  endfacet
  facet normal 0 -1 0
    outer loop
      vertex -49.15 43 25
      vertex -14.567 43 22.75
      vertex -14.567 43 28
    endloop
  endfacet
  facet normal 1 -0 0
    outer loop
      vertex -49.15 40 25
      vertex -49.15 43 22.75
      vertex -49.15 43 25
    endloop
  endfacet
  facet normal 1 0 0
    outer loop
      vertex -49.15 43 22.75
      vertex -49.15 40 25
      vertex -49.15 40 22.75
    endloop
  endfacet
  facet normal 1 -0 0
    outer loop
      vertex -49.15 -43 25
      vertex -49.15 -40 22.75
      vertex -49.15 -40 25
    endloop
  endfacet
  facet normal 1 0 0
    outer loop
      vertex -49.15 -40 22.75
      vertex -49.15 -43 25
      vertex -49.15 -43 22.75
    endloop
  endfacet
  facet normal -1 0 0
    outer loop
      vertex 49.15 40 22.75
      vertex 49.15 43 25
      vertex 49.15 43 22.75
    endloop
  endfacet
  facet normal -1 -0 0
    outer loop
      vertex 49.15 43 25
      vertex 49.15 40 22.75
      vertex 49.15 40 25
    endloop
  endfacet
  facet normal -1 0 0
    outer loop
      vertex 49.15 -43 22.75
      vertex 49.15 -40 25
      vertex 49.15 -40 22.75
    endloop
  endfacet
  facet normal -1 -0 0
    outer loop
      vertex 49.15 -40 25
      vertex 49.15 -43 22.75
      vertex 49.15 -43 25
    endloop
  endfacet
  facet normal -1 0 0
    outer loop
      vertex 61.15 -40 22.75
      vertex 61.15 36.8076 25
      vertex 61.15 36.8076 22.75
    endloop
  endfacet
  facet normal -1 -0 0
    outer loop
      vertex 61.15 36.8076 25
      vertex 61.15 -40 22.75
      vertex 61.15 -40 25
    endloop
  endfacet
  facet normal 0 1 -0
    outer loop
      vertex 61.15 -40 22.75
      vertex 49.15 -40 25
      vertex 61.15 -40 25
    endloop
  endfacet
  facet normal 0 1 0
    outer loop
      vertex 49.15 -40 25
      vertex 61.15 -40 22.75
      vertex 49.15 -40 22.75
    endloop
  endfacet
  facet normal 0 1 -0
    outer loop
      vertex -49.15 -40 22.75
      vertex -61.15 -40 25
      vertex -49.15 -40 25
    endloop
  endfacet
  facet normal 0 1 0
    outer loop
      vertex -61.15 -40 25
      vertex -49.15 -40 22.75
      vertex -61.15 -40 22.75
    endloop
  endfacet
  facet normal 1 -0 0
    outer loop
      vertex -61.15 -40 25
      vertex -61.15 40 22.75
      vertex -61.15 40 25
    endloop
  endfacet
  facet normal 1 0 0
    outer loop
      vertex -61.15 40 22.75
      vertex -61.15 -40 25
      vertex -61.15 -40 22.75
    endloop
  endfacet
  facet normal 0 -1 0
    outer loop
      vertex 49.15 40 22.75
      vertex 57.9576 40 25
      vertex 49.15 40 25
    endloop
  endfacet
  facet normal 0 -1 -0
    outer loop
      vertex 57.9576 40 25
      vertex 49.15 40 22.75
      vertex 57.9576 40 22.75
    endloop
  endfacet
  facet normal 0 -1 0
    outer loop
      vertex -61.15 40 22.75
      vertex -49.15 40 25
      vertex -61.15 40 25
    endloop
  endfacet
  facet normal 0 -1 -0
    outer loop
      vertex -49.15 40 25
      vertex -61.15 40 22.75
      vertex -49.15 40 22.75
    endloop
  endfacet
  facet normal -0.707107 -0.707107 0
    outer loop
      vertex 61.15 36.8076 22.75
      vertex 57.9576 40 25
      vertex 57.9576 40 22.75
    endloop
  endfacet
  facet normal -0.707107 -0.707107 0
    outer loop
      vertex 57.9576 40 25
      vertex 61.15 36.8076 22.75
      vertex 61.15 36.8076 25
    endloop
  endfacet
  facet normal 0.707107 -0.707107 0
    outer loop
      vertex 64.15 -44.5 28
      vertex 65.65 -43 22
      vertex 65.65 -43 28
    endloop
  endfacet
  facet normal 0.707107 -0.707107 0
    outer loop
      vertex 65.65 -43 22
      vertex 64.15 -44.5 28
      vertex 64.15 -44.5 22
    endloop
  endfacet
  facet normal 1 -0 0
    outer loop
      vertex 65.65 -43 28
      vertex 65.65 38.0502 22
      vertex 65.65 38.0502 28
    endloop
  endfacet
  facet normal 1 0 0
    outer loop
      vertex 65.65 38.0502 22
      vertex 65.65 -43 28
      vertex 65.65 -43 22
    endloop
  endfacet
  facet normal -0.707107 0.707107 0
    outer loop
      vertex -65.65 43 22
      vertex -64.15 44.5 28
      vertex -64.15 44.5 22
    endloop
  endfacet
  facet normal -0.707107 0.707107 0
    outer loop
      vertex -64.15 44.5 28
      vertex -65.65 43 22
      vertex -65.65 43 28
    endloop
  endfacet
  facet normal 0 1 -0
    outer loop
      vertex 59.2002 44.5 22
      vertex 15 44.5 28
      vertex 59.2002 44.5 28
    endloop
  endfacet
  facet normal 0 1 0
    outer loop
      vertex 15 44.5 28
      vertex 59.2002 44.5 22
      vertex 15 44.5 22
    endloop
  endfacet
  facet normal 0 1 -0
    outer loop
      vertex -15 44.5 22
      vertex -64.15 44.5 28
      vertex -15 44.5 28
    endloop
  endfacet
  facet normal 0 1 0
    outer loop
      vertex -64.15 44.5 28
      vertex -15 44.5 22
      vertex -64.15 44.5 22
    endloop
  endfacet
  facet normal 0 0 1
    outer loop
      vertex 60.2609 44.0607 28
      vertex 64.15 38.0502 28
      vertex 65.2106 39.1109 28
    endloop
  endfacet
  facet normal 0 0 1
    outer loop
      vertex 59.2002 43 28
      vertex 60.2609 44.0607 28
      vertex 59.2002 44.5 28
    endloop
  endfacet
  facet normal 0 0 1
    outer loop
      vertex 60.2609 44.0607 28
      vertex 59.2002 43 28
      vertex 64.15 38.0502 28
    endloop
  endfacet
  facet normal -0 0 1
    outer loop
      vertex 15 44.5 28
      vertex 59.2002 43 28
      vertex 59.2002 44.5 28
    endloop
  endfacet
  facet normal -0 0 1
    outer loop
      vertex 14.6722 43.1411 28
      vertex 59.2002 43 28
      vertex 15 44.5 28
    endloop
  endfacet
  facet normal 0 0 1
    outer loop
      vertex 59.2002 43 28
      vertex 14.6722 43.1411 28
      vertex 14.567 43 28
    endloop
  endfacet
  facet normal 0 0 1
    outer loop
      vertex 64.15 38.0502 28
      vertex 65.65 38.0502 28
      vertex 65.2106 39.1109 28
    endloop
  endfacet
  facet normal 0 0 1
    outer loop
      vertex 65.65 38.0502 28
      vertex 64.15 38.0502 28
      vertex 65.65 -43 28
    endloop
  endfacet
  facet normal 0 0 1
    outer loop
      vertex 64.15 -43 28
      vertex 65.65 -43 28
      vertex 64.15 38.0502 28
    endloop
  endfacet
  facet normal -0 0 1
    outer loop
      vertex 64.15 -43 28
      vertex 64.15 -44.5 28
      vertex 65.65 -43 28
    endloop
  endfacet
  facet normal 0 0 1
    outer loop
      vertex 64.15 -43 28
      vertex 15 -44.5 28
      vertex 64.15 -44.5 28
    endloop
  endfacet
  facet normal 0 0 1
    outer loop
      vertex 64.15 -43 28
      vertex 14.6722 -43.1411 28
      vertex 15 -44.5 28
    endloop
  endfacet
  facet normal 0 -0 1
    outer loop
      vertex 14.6722 -43.1411 28
      vertex 64.15 -43 28
      vertex 14.567 -43 28
    endloop
  endfacet
  facet normal 0 0 1
    outer loop
      vertex -64.15 43 28
      vertex -15 44.5 28
      vertex -64.15 44.5 28
    endloop
  endfacet
  facet normal 0 0 1
    outer loop
      vertex -15 44.5 28
      vertex -64.15 43 28
      vertex -14.6722 43.1411 28
    endloop
  endfacet
  facet normal 0 0 1
    outer loop
      vertex -14.6722 43.1411 28
      vertex -64.15 43 28
      vertex -14.567 43 28
    endloop
  endfacet
  facet normal 0 0 1
    outer loop
      vertex -65.65 43 28
      vertex -64.15 43 28
      vertex -64.15 44.5 28
    endloop
  endfacet
  facet normal 0 0 1
    outer loop
      vertex -64.15 43 28
      vertex -65.65 43 28
      vertex -64.15 -43 28
    endloop
  endfacet
  facet normal 0 0 1
    outer loop
      vertex -65.65 -43 28
      vertex -64.15 -43 28
      vertex -65.65 43 28
    endloop
  endfacet
  facet normal 0 0 1
    outer loop
      vertex -64.15 -43 28
      vertex -65.65 -43 28
      vertex -64.15 -44.5 28
    endloop
  endfacet
  facet normal -0 0 1
    outer loop
      vertex -64.15 -43 28
      vertex -14.6722 -43.1411 28
      vertex -14.567 -43 28
    endloop
  endfacet
  facet normal 0 0 1
    outer loop
      vertex -64.15 -43 28
      vertex -15 -44.5 28
      vertex -14.6722 -43.1411 28
    endloop
  endfacet
  facet normal 0 0 1
    outer loop
      vertex -15 -44.5 28
      vertex -64.15 -43 28
      vertex -64.15 -44.5 28
    endloop
  endfacet
  facet normal -0.707107 -0.707107 0
    outer loop
      vertex -64.15 -44.5 22
      vertex -65.65 -43 28
      vertex -65.65 -43 22
    endloop
  endfacet
  facet normal -0.707107 -0.707107 0
    outer loop
      vertex -65.65 -43 28
      vertex -64.15 -44.5 22
      vertex -64.15 -44.5 28
    endloop
  endfacet
  facet normal -1 0 0
    outer loop
      vertex -65.65 -43 22
      vertex -65.65 43 28
      vertex -65.65 43 22
    endloop
  endfacet
  facet normal -1 -0 0
    outer loop
      vertex -65.65 43 28
      vertex -65.65 -43 22
      vertex -65.65 -43 28
    endloop
  endfacet
  facet normal 0 -1 0
    outer loop
      vertex 15 -44.5 22
      vertex 64.15 -44.5 28
      vertex 15 -44.5 28
    endloop
  endfacet
  facet normal 0 -1 -0
    outer loop
      vertex 64.15 -44.5 28
      vertex 15 -44.5 22
      vertex 64.15 -44.5 22
    endloop
  endfacet
  facet normal 0 -1 0
    outer loop
      vertex -64.15 -44.5 22
      vertex -15 -44.5 28
      vertex -64.15 -44.5 28
    endloop
  endfacet
  facet normal 0 -1 -0
    outer loop
      vertex -15 -44.5 28
      vertex -64.15 -44.5 22
      vertex -15 -44.5 22
    endloop
  endfacet
  facet normal 0.38269 0.923877 -0
    outer loop
      vertex 60.2609 44.0607 22
      vertex 59.2002 44.5 28
      vertex 60.2609 44.0607 28
    endloop
  endfacet
  facet normal 0.38269 0.923877 0
    outer loop
      vertex 59.2002 44.5 28
      vertex 60.2609 44.0607 22
      vertex 59.2002 44.5 22
    endloop
  endfacet
  facet normal 0.707107 0.707107 0
    outer loop
      vertex 65.2106 39.1109 28
      vertex 60.2609 44.0607 22
      vertex 60.2609 44.0607 28
    endloop
  endfacet
  facet normal 0.707107 0.707107 0
    outer loop
      vertex 60.2609 44.0607 22
      vertex 65.2106 39.1109 28
      vertex 65.2106 39.1109 22
    endloop
  endfacet
  facet normal 0.923877 0.38269 0
    outer loop
      vertex 65.65 38.0502 28
      vertex 65.2106 39.1109 22
      vertex 65.2106 39.1109 28
    endloop
  endfacet
  facet normal 0.923877 0.38269 0
    outer loop
      vertex 65.2106 39.1109 22
      vertex 65.65 38.0502 28
      vertex 65.65 38.0502 22
    endloop
  endfacet
  facet normal -1 0 0
    outer loop
      vertex 64.15 -43 25
      vertex 64.15 38.0502 28
      vertex 64.15 38.0502 25
    endloop
  endfacet
  facet normal -1 -0 0
    outer loop
      vertex 64.15 38.0502 28
      vertex 64.15 -43 25
      vertex 64.15 -43 28
    endloop
  endfacet
  facet normal 0 0 1
    outer loop
      vertex 61.15 -40 25
      vertex 64.15 38.0502 25
      vertex 61.15 36.8076 25
    endloop
  endfacet
  facet normal 0 0 1
    outer loop
      vertex 59.2002 43 25
      vertex 61.15 36.8076 25
      vertex 64.15 38.0502 25
    endloop
  endfacet
  facet normal 0 0 1
    outer loop
      vertex 59.2002 43 25
      vertex 57.9576 40 25
      vertex 61.15 36.8076 25
    endloop
  endfacet
  facet normal -0 0 1
    outer loop
      vertex 49.15 43 25
      vertex 57.9576 40 25
      vertex 59.2002 43 25
    endloop
  endfacet
  facet normal 0 0 1
    outer loop
      vertex 57.9576 40 25
      vertex 49.15 43 25
      vertex 49.15 40 25
    endloop
  endfacet
  facet normal 0 0 1
    outer loop
      vertex 64.15 38.0502 25
      vertex 61.15 -40 25
      vertex 64.15 -43 25
    endloop
  endfacet
  facet normal 0 0 1
    outer loop
      vertex 49.15 -43 25
      vertex 61.15 -40 25
      vertex 49.15 -40 25
    endloop
  endfacet
  facet normal 0 0 1
    outer loop
      vertex 61.15 -40 25
      vertex 49.15 -43 25
      vertex 64.15 -43 25
    endloop
  endfacet
  facet normal 0 0 1
    outer loop
      vertex -49.15 43 25
      vertex -61.15 40 25
      vertex -49.15 40 25
    endloop
  endfacet
  facet normal 0 0 1
    outer loop
      vertex -61.15 40 25
      vertex -64.15 43 25
      vertex -61.15 -40 25
    endloop
  endfacet
  facet normal -0 0 1
    outer loop
      vertex -64.15 43 25
      vertex -61.15 40 25
      vertex -49.15 43 25
    endloop
  endfacet
  facet normal -0 0 1
    outer loop
      vertex -61.15 -40 25
      vertex -49.15 -43 25
      vertex -49.15 -40 25
    endloop
  endfacet
  facet normal 0 0 1
    outer loop
      vertex -61.15 -40 25
      vertex -64.15 -43 25
      vertex -49.15 -43 25
    endloop
  endfacet
  facet normal 0 0 1
    outer loop
      vertex -64.15 -43 25
      vertex -61.15 -40 25
      vertex -64.15 43 25
    endloop
  endfacet
  facet normal -0.707107 -0.707107 0
    outer loop
      vertex 64.15 38.0502 25
      vertex 59.2002 43 28
      vertex 59.2002 43 25
    endloop
  endfacet
  facet normal -0.707107 -0.707107 0
    outer loop
      vertex 59.2002 43 28
      vertex 64.15 38.0502 25
      vertex 64.15 38.0502 28
    endloop
  endfacet
  facet normal 1 -0 0
    outer loop
      vertex -64.15 -43 28
      vertex -64.15 43 25
      vertex -64.15 43 28
    endloop
  endfacet
  facet normal 1 0 0
    outer loop
      vertex -64.15 43 25
      vertex -64.15 -43 28
      vertex -64.15 -43 25
    endloop
  endfacet
endsolid OpenSCAD_Model
